<?xml version="1.0" standalone="no"?>
<!DOCTYPE svg PUBLIC "-//W3C//DTD SVG 20010904//EN"
 "http://www.w3.org/TR/2001/REC-SVG-20010904/DTD/svg10.dtd">
<svg version="1.0" xmlns="http://www.w3.org/2000/svg"
 width="512.000000pt" height="512.000000pt" viewBox="0 0 512.000000 512.000000"
 preserveAspectRatio="xMidYMid meet">
<metadata>
Created by potrace 1.14, written by Peter Selinger 2001-2017
</metadata>
<g transform="translate(0.000000,512.000000) scale(0.100000,-0.100000)"
fill="#000000" stroke="none">
<path d="M2665 5103 c-302 -64 -546 -306 -600 -593 -3 -19 -8 -44 -10 -55 -2
-11 -4 -47 -4 -81 l-1 -60 -482 -483 c-266 -266 -492 -489 -503 -496 -11 -7
-42 -16 -70 -19 -114 -14 -245 -69 -350 -148 -136 -103 -240 -261 -281 -428
-23 -97 -24 -269 -1 -360 26 -98 98 -236 170 -322 l64 -77 0 -649 0 -649 -264
0 c-281 0 -301 -3 -322 -50 -7 -16 -11 -119 -11 -299 l0 -276 29 -29 29 -29
1649 0 1648 0 28 25 c15 14 27 36 28 48 0 12 1 136 2 276 2 270 -2 299 -44
322 -18 9 -222 12 -884 13 l-860 1 -2 652 -2 652 33 33 c147 148 217 323 220
545 l1 122 448 449 448 449 42 -2 c23 -1 59 2 79 5 23 5 47 3 60 -4 13 -7 104
-77 203 -155 99 -79 194 -154 210 -167 171 -134 497 -391 563 -442 l82 -65 0
-116 0 -116 -60 -38 c-92 -59 -165 -164 -186 -267 -4 -19 -8 -244 -8 -500 l-2
-464 27 -30 c17 -20 35 -29 55 -29 31 0 383 171 412 200 15 15 17 52 19 327 1
171 2 314 2 319 1 4 78 7 171 7 l170 0 0 -313 c0 -266 2 -316 15 -335 18 -25
357 -198 403 -205 21 -3 38 2 58 18 l29 23 0 499 0 498 -37 75 c-40 83 -87
136 -164 185 l-50 33 1 146 c1 173 -12 262 -50 335 -52 105 -168 194 -284 220
-23 5 -51 20 -62 33 -11 12 -33 37 -47 53 -15 17 -74 84 -132 150 -58 66 -109
125 -115 131 -5 6 -39 44 -75 84 -36 40 -69 78 -75 84 -5 6 -57 65 -115 131
-58 66 -107 122 -110 125 -3 3 -53 60 -112 126 l-108 122 2 63 c5 209 -73 407
-219 556 -103 105 -212 169 -358 210 -75 21 -256 24 -340 6z m279 -169 c147
-30 307 -146 385 -278 123 -207 103 -489 -47 -675 -78 -96 -160 -152 -280
-194 -361 -124 -752 136 -779 518 -28 401 327 711 721 629z m-825 -898 c83
-182 238 -328 429 -402 20 -8 -10 -41 -357 -388 l-379 -379 -25 49 c-86 171
-244 304 -436 369 l-64 22 394 396 c217 217 397 396 401 396 4 1 21 -28 37
-63z m1620 -206 c112 -126 212 -239 223 -252 11 -13 36 -41 56 -64 20 -22 64
-72 97 -110 33 -37 84 -95 114 -127 l53 -59 -58 -37 c-66 -42 -136 -116 -166
-176 -11 -22 -22 -42 -24 -43 -1 -2 -25 13 -52 35 -50 38 -354 277 -382 300
-8 7 -40 32 -70 55 -30 24 -86 69 -125 100 -38 30 -113 89 -166 129 l-96 75
63 37 c118 70 240 201 295 317 13 28 26 50 30 50 3 0 97 -103 208 -230z
m-2506 -685 c54 -12 159 -56 207 -88 76 -50 158 -145 201 -232 114 -232 73
-497 -105 -679 -110 -113 -248 -174 -407 -180 -137 -5 -249 29 -367 111 -265
187 -328 563 -137 828 93 129 213 207 370 240 60 12 178 12 238 0z m3289 -89
c59 -21 115 -72 143 -131 25 -50 27 -63 27 -192 0 -76 0 -146 -1 -155 -1 -17
-20 -18 -257 -18 l-256 0 4 163 c3 141 6 167 25 202 62 117 197 173 315 131z
m284 -693 c59 -32 111 -94 129 -156 13 -44 15 -112 13 -419 l-3 -365 -80 38
-80 39 -5 335 c-5 332 -5 335 -28 357 -22 23 -27 23 -290 26 -167 2 -280 -1
-303 -7 -62 -19 -63 -26 -64 -384 l0 -322 -80 -42 c-44 -23 -82 -42 -85 -43
-3 0 -5 173 -4 383 l0 384 28 56 c29 60 76 104 141 130 34 14 84 16 355 14
302 -2 317 -3 356 -24z m-3982 -513 c107 -48 294 -68 421 -45 36 6 145 41 188
59 16 8 17 -24 17 -586 l0 -595 -337 1 -338 1 -3 593 c-1 325 0 592 2 592 2 0
24 -9 50 -20z m2417 -1347 c0 -5 2 -81 2 -171 l2 -162 -1537 0 -1538 0 0 170
0 170 1535 0 c844 0 1535 -3 1536 -7z"/>
<path d="M2710 4762 c-148 -38 -260 -148 -305 -298 -17 -56 -12 -196 9 -252
62 -169 223 -283 401 -283 224 0 409 171 422 392 19 294 -244 514 -527 441z
m205 -176 c55 -23 103 -71 131 -131 88 -186 -82 -395 -286 -350 -151 33 -235
190 -180 338 50 132 204 198 335 143z"/>
<path d="M1820 3563 c-199 -198 -216 -223 -189 -272 18 -33 63 -55 94 -47 14
4 110 92 215 197 174 174 190 193 190 225 0 48 -37 84 -86 84 -34 0 -49 -13
-224 -187z"/>
<path d="M1044 2979 c-228 -30 -390 -256 -353 -491 46 -290 393 -447 640 -290
130 83 201 211 201 362 0 262 -224 454 -488 419z m170 -187 c199 -88 197 -377
-4 -465 -170 -75 -366 63 -354 250 12 175 196 286 358 215z"/>
<path d="M994 1530 c-11 -4 -28 -20 -38 -34 -15 -24 -17 -58 -17 -303 0 -299
3 -313 57 -333 31 -12 87 9 103 38 7 14 11 117 11 294 0 255 -1 275 -20 306
-11 17 -26 32 -34 32 -8 0 -20 2 -28 4 -7 3 -22 1 -34 -4z"/>
</g>
</svg>
